<?xml version="1.0" encoding="UTF-8"?>
<svg version="1.1" xmlns="http://www.w3.org/2000/svg" width="1080" height="1080">
<path d="M0 0 C0.33 0.99 0.66 1.98 1 3 C1.66 3 2.32 3 3 3 C6.21009485 11.25452961 7.22024849 17.49892735 4 26 C2.29674262 29.78298501 0.49651765 33.51664884 -1.3125 37.25 C-1.78623047 38.23613281 -2.25996094 39.22226562 -2.74804688 40.23828125 C-6.42510462 47.87408652 -10.21004507 55.4531507 -14.02734375 63.01953125 C-18.18863187 71.27388965 -22.19162673 79.5754167 -26 88 C-26.66 88 -27.32 88 -28 88 C-27.87625 89.051875 -27.87625 89.051875 -27.75 90.125 C-28.08386881 93.96449132 -29.80370787 95.86243982 -32 99 C-32.70958902 100.64495637 -33.41679716 102.29130393 -34.0859375 103.953125 C-35.64748398 107.4499214 -37.59919416 110.73713355 -39.5 114.05859375 C-40.9871196 116.97474234 -42.09377472 119.87563201 -43.20947266 122.94506836 C-44.48510918 126.26101419 -46.07454199 129.40014292 -47.6875 132.5625 C-48.03127686 133.2443335 -48.37505371 133.92616699 -48.72924805 134.62866211 C-51.49667985 140.08750773 -54.3606492 145.49402334 -57.29760742 150.86352539 C-59.44506817 154.82236622 -61.2448877 158.85494755 -63 163 C-64.04432133 165.15473894 -65.10743279 167.3004549 -66.1875 169.4375 C-66.49010742 170.03892822 -66.79271484 170.64035645 -67.10449219 171.26000977 C-68.3752612 173.78561441 -69.6505852 176.30890652 -70.92626953 178.83203125 C-75.71900202 188.32098122 -80.34995798 197.879214 -84.91723633 207.47875977 C-88.00805987 213.96296347 -91.17787286 220.40084807 -94.41601562 226.8125 C-96.7655435 231.48175202 -98.94123058 236.19620469 -101 241 C-101.66 241 -102.32 241 -103 241 C-103.25007812 241.62261719 -103.50015625 242.24523437 -103.7578125 242.88671875 C-105.25104225 245.4270876 -106.15395657 245.80083001 -108.875 246.8125 C-114.06715767 248.91469067 -118.71669977 251.70389412 -123.49609375 254.609375 C-126 256 -126 256 -128 256 C-128.33 256.99 -128.66 257.98 -129 259 C-129.639375 259.144375 -130.27875 259.28875 -130.9375 259.4375 C-131.618125 259.623125 -132.29875 259.80875 -133 260 C-133.27457031 260.58136719 -133.54914062 261.16273438 -133.83203125 261.76171875 C-135.33852749 264.64875001 -137.29009018 266.25053243 -139.75 268.375 C-142.73561819 270.95600517 -145.43230018 273.4584964 -147.9375 276.5 C-152.26466145 280.03237669 -156.49186625 280.54558177 -162 280 C-168.66576173 277.99637338 -172.42742002 273.99062373 -177.125 269 C-182.98010571 262.78618304 -182.98010571 262.78618304 -190 258 C-190.33 257.34 -190.66 256.68 -191 256 C-191.99 255.67 -192.98 255.34 -194 255 C-194 254.34 -194 253.68 -194 253 C-194.85078125 252.74089844 -195.7015625 252.48179687 -196.578125 252.21484375 C-200.17101137 250.93928706 -203.37725633 249.33662422 -206.75 247.5625 C-212.38695743 244.67516956 -217.85609973 242.52153016 -224 241 C-224.96679688 240.73445312 -225.93359375 240.46890625 -226.9296875 240.1953125 C-233.2831541 238.49782142 -239.43082489 237.34015146 -246 237 C-246.77601563 236.95875 -247.55203125 236.9175 -248.3515625 236.875 C-272.60463657 236.24299807 -297.38513944 245.65036908 -316 261 C-316.80824219 262.08087891 -316.80824219 262.08087891 -317.6328125 263.18359375 C-319 265 -319 265 -322 266 C-323.67067133 267.99665598 -325.33752986 269.99651034 -327 272 C-327.66 272 -328.32 272 -329 272 C-329.33 272.99 -329.66 273.98 -330 275 C-333.29254118 278.39231516 -336.12852418 279.66069014 -340.8671875 280.0390625 C-344.55646567 279.9714933 -347.50840284 279.22512181 -351 278 C-351.33 277.01 -351.66 276.02 -352 275 C-352.66 274.67 -353.32 274.34 -354 274 C-356 273 -356 273 -357 270 C-357.5775 269.71125 -358.155 269.4225 -358.75 269.125 C-361.13909559 267.93045221 -362.57522296 266.44138661 -364.41796875 264.54296875 C-377.55478597 251.73051738 -395.09842968 242.60079978 -413.0625 239.1875 C-414.15667236 238.97883301 -415.25084473 238.77016602 -416.37817383 238.55517578 C-434.94165427 235.22351311 -455.28152835 235.80149984 -472.23022461 245.08740234 C-474.0937313 246.04833323 -475.94729748 246.72208668 -477.9375 247.375 C-485.23117352 250.01556673 -491.33631035 255.14375967 -497.37109375 259.8984375 C-499 261 -499 261 -501 261 C-501.3403125 261.8353125 -501.3403125 261.8353125 -501.6875 262.6875 C-503.37550036 265.66159588 -505.46676517 267.72008865 -508 270 C-508.66 270 -509.32 270 -510 270 C-510.268125 270.639375 -510.53625 271.27875 -510.8125 271.9375 C-512 274 -512 274 -515 275 C-515.33 275.99 -515.66 276.98 -516 278 C-521.48477526 280.48120786 -526.4425117 280.7970577 -532.18359375 279.0078125 C-537.30219231 276.71939415 -540.82013027 272.56568008 -544.625 268.5625 C-552.41023713 260.11345884 -552.41023713 260.11345884 -562 254 C-562 253.34 -562 252.68 -562 252 C-562.9075 251.79375 -563.815 251.5875 -564.75 251.375 C-568.35542194 250.36256838 -571.49421933 248.78800595 -574.8125 247.0625 C-580.12623171 244.34292551 -585.22940077 242.46680376 -591 241 C-591.98097656 240.73316406 -592.96195313 240.46632813 -593.97265625 240.19140625 C-618.16728373 233.79864121 -643.76681542 237.45716369 -665.7578125 249.51171875 C-668.20637825 250.96258532 -670.61322553 252.44978602 -673 254 C-673.95390625 254.60199219 -674.9078125 255.20398438 -675.890625 255.82421875 C-679.33179731 258.23217475 -682.3242722 260.87598701 -685.375 263.75 C-685.94226807 264.2764209 -686.50953613 264.8028418 -687.09399414 265.34521484 C-690.31214974 268.34846015 -693.40403231 271.43372185 -696.4375 274.625 C-700.59132672 278.80484233 -704.23942147 280.01862501 -710.0625 280.3125 C-717.41251991 279.72916509 -721.64393806 274.71066132 -726.71484375 269.8515625 C-729.13966047 267.56793764 -730.79790537 266.06736488 -734 265 C-735.00698786 264.00703704 -736.00609368 263.00605677 -737 262 C-738.4923083 260.99782599 -740.01693415 260.0429123 -741.5625 259.125 C-742.88701172 258.32255859 -742.88701172 258.32255859 -744.23828125 257.50390625 C-746.92325015 255.95316809 -746.92325015 255.95316809 -749.66796875 255.02734375 C-754.06404051 253.38463615 -756.38883327 252.07772705 -758.75 247.9140625 C-760.12536946 244.70037525 -761.23974861 241.40807114 -762.31445312 238.08349609 C-763.4338615 234.68141949 -764.72708562 231.34692931 -766 228 C-766.50035856 226.65768568 -767.00035901 225.31523783 -767.5 223.97265625 C-769.64699915 218.24872297 -771.93731579 212.58369384 -774.22802734 206.91601562 C-775.04903208 204.87830368 -775.86319708 202.83795876 -776.67578125 200.796875 C-776.94970703 200.10924072 -777.22363281 199.42160645 -777.50585938 198.71313477 C-778.03239373 197.39090247 -778.55845694 196.06848243 -779.08398438 194.74584961 C-779.99580335 192.46040145 -780.89900505 190.20198989 -782 188 C-782.7815606 177.11827166 -781.0686698 171.30894916 -774.3046875 162.9296875 C-768.07106609 157.71035026 -760.16687292 156.11319852 -752.375 154.5625 C-750.33587609 154.13831596 -748.29681536 153.71382804 -746.2578125 153.2890625 C-745.22172852 153.07668945 -744.18564453 152.86431641 -743.11816406 152.64550781 C-738.15302715 151.61764828 -733.20248127 150.52438514 -728.25 149.4375 C-721.25492343 147.91385501 -714.25598389 146.41018344 -707.25 144.9375 C-706.49009766 144.77773682 -705.73019531 144.61797363 -704.94726562 144.45336914 C-700.91405722 143.60710024 -696.87946758 142.76781348 -692.84375 141.93359375 C-691.99135742 141.75642822 -691.13896484 141.5792627 -690.26074219 141.39672852 C-688.64205978 141.0603687 -687.02294812 140.7260648 -685.40332031 140.39428711 C-681.98949713 139.6835097 -678.66408929 138.90367005 -675.30859375 137.94140625 C-672.29364125 137.08355082 -669.40935818 136.5160148 -666.3125 136.0625 C-661.14130875 135.24024847 -656.1407188 134.08385108 -651.07421875 132.7734375 C-646.88059834 131.71837163 -642.65715408 130.83879546 -638.42578125 129.94921875 C-634.83367001 129.18704698 -631.25062048 128.38745801 -627.66796875 127.58203125 C-605.36497702 122.56992935 -605.36497702 122.56992935 -594.234375 120.640625 C-590.92250814 120.03120557 -590.92250814 120.03120557 -587.4375 118.98046875 C-584.35370871 118.10088737 -581.41775772 117.52191238 -578.25 117.0625 C-573.27519265 116.27569983 -568.54769492 115.10464038 -563.7109375 113.71875 C-560.10662458 112.76313966 -556.4737295 112.155953 -552.80078125 111.52734375 C-549.91274313 110.98357088 -547.09507668 110.29757336 -544.25 109.5625 C-539.99688088 108.47084808 -535.7478435 107.52493817 -531.4375 106.6875 C-524.09476819 105.2553263 -516.79961326 103.63691921 -509.5 102 C-495.42624357 98.84676958 -495.42624357 98.84676958 -488.5 97.5 C-480.37001663 95.91708849 -472.29755337 94.08158422 -464.21582031 92.27050781 C-456.49057336 90.54252043 -448.75712329 88.86755181 -440.99902344 87.29321289 C-437.74218226 86.62306389 -434.55611713 85.87235986 -431.359375 84.953125 C-428.22963574 84.06515247 -425.21396039 83.47867495 -422 83 C-418.73044055 82.48204999 -415.68798698 81.91085342 -412.5 81 C-409.4062899 80.11608283 -406.48428743 79.55898936 -403.3125 79.0625 C-398.21416481 78.25183304 -393.28120333 77.12460861 -388.28833008 75.82299805 C-385.02377691 75.00595085 -381.75303007 74.27932973 -378.4609375 73.58203125 C-377.23358887 73.32123779 -376.00624023 73.06044434 -374.74169922 72.79174805 C-373.50693848 72.53047119 -372.27217773 72.26919434 -371 72 C-351.06982891 67.76511629 -351.06982891 67.76511629 -331.1875 63.3125 C-324.07005613 61.67736847 -316.94836851 60.14939018 -309.78125 58.74609375 C-299.02320981 56.62338127 -288.30590887 54.39152646 -277.6875 51.6484375 C-274.07259362 50.77623625 -270.42859139 50.16051366 -266.765625 49.52734375 C-263.89138826 48.97929013 -261.08300461 48.29347579 -258.25 47.5625 C-253.99688088 46.47084808 -249.7478435 45.52493817 -245.4375 44.6875 C-236.90085451 43.02245769 -228.42433897 41.10476122 -219.93823242 39.20092773 C-212.64848146 37.57139391 -205.35653646 36.02369528 -198.015625 34.640625 C-194.9178517 34.02098193 -194.9178517 34.02098193 -191.609375 33.015625 C-187.09973347 31.74667825 -182.57109492 30.9482177 -177.9609375 30.14453125 C-174.73712292 29.56573828 -171.65605738 28.90173068 -168.5 28 C-164.03063638 26.72303896 -159.53494903 25.9419164 -154.9609375 25.14453125 C-150.54513017 24.35173187 -146.31257155 23.25698176 -142 22 C-140.42227766 21.6793661 -138.8386404 21.38621939 -137.25 21.125 C-126.70660365 19.27808781 -116.17434129 17.12704897 -105.8125 14.4375 C-100.60292634 13.09332828 -95.35072016 12.09010335 -90.06176758 11.12255859 C-79.88916632 9.2580452 -69.84701409 6.98722857 -59.83349609 4.41259766 C-54.82602736 3.14823314 -49.82753586 2.27292662 -44.7265625 1.49609375 C-42.05934024 1.01079686 -39.58081922 0.32340423 -37 -0.5 C-25.0882187 -4.24859571 -10.97195241 -7.24562895 0 0 Z " fill="#577BD3" transform="translate(970,614)"/>
<path d="M0 0 C0.95057864 4.99613182 1.3082659 9.91300019 1.57582092 14.97937012 C1.62567798 15.87300026 1.67553503 16.76663041 1.7269029 17.68734026 C1.89282104 20.6761592 2.05395339 23.66521651 2.21508789 26.65429688 C2.33318371 28.79994201 2.45156343 30.94557153 2.57020569 33.09118652 C2.89148097 38.91786162 3.20849453 44.74476137 3.52454305 50.57172203 C3.78910675 55.44202459 4.05578896 60.31221017 4.32248396 65.18239641 C4.95212275 76.68067997 5.5783654 88.179145 6.20239258 99.67773438 C6.84507232 111.5191249 7.49292232 123.36022425 8.1434384 135.20118666 C8.70251108 145.38048376 9.25860147 155.55994073 9.81227487 165.73953295 C10.14263496 171.81313472 10.47404271 177.88667438 10.80821419 183.96006775 C11.12274005 189.67917381 11.43350871 195.39847232 11.74147606 201.11793518 C11.85464547 203.20845624 11.96908909 205.2989088 12.08495331 207.38928223 C12.68739256 218.27289155 13.18095855 229.09580867 13 240 C8.56303339 240.96081947 4.1253917 241.91846194 -0.3125 242.875 C-1.55580078 243.14441406 -2.79910156 243.41382813 -4.08007812 243.69140625 C-14.34031186 245.89964553 -24.61247769 247.81342308 -34.98046875 249.4375 C-37.97275038 249.99492375 -40.8985481 250.71949776 -43.84643555 251.47363281 C-47.64237559 252.40142408 -51.47773758 253.1274948 -55.3125 253.875 C-62.05176984 255.20485592 -68.78085252 256.57195231 -75.5 258 C-102.79791918 263.78234595 -102.79791918 263.78234595 -114.98046875 265.60546875 C-116.9888261 265.8026888 -116.9888261 265.8026888 -118 267 C-119.6072462 267.34396902 -121.22591054 267.63495657 -122.84765625 267.90234375 C-123.84603516 268.07056641 -124.84441406 268.23878906 -125.87304688 268.41210938 C-126.92556641 268.58548828 -127.97808594 268.75886719 -129.0625 268.9375 C-137.19718311 270.24799649 -137.19718311 270.24799649 -145.234375 272.0390625 C-149.20281199 273.05175493 -153.15100888 273.76935881 -157.1875 274.4375 C-163.23565422 275.47305787 -169.19469475 276.68874937 -175.1640625 278.1171875 C-181.4568885 279.56543462 -187.78406268 280.84867009 -194.10766602 282.15478516 C-199.74638737 283.32001162 -205.37672589 284.51251573 -211 285.75 C-214.60185976 286.53282178 -218.15090832 287.20176874 -221.8125 287.625 C-224.85584664 287.64929855 -224.85584664 287.64929855 -226 289 C-228.51898684 289.50198297 -231.02974465 289.95384007 -233.5625 290.375 C-235.10688522 290.63995916 -236.65115329 290.90560189 -238.1953125 291.171875 C-239.38495605 291.37586914 -239.38495605 291.37586914 -240.59863281 291.58398438 C-244.38288701 292.23957294 -248.16098869 292.92633888 -251.9375 293.625 C-252.6169165 293.74794434 -253.29633301 293.87088867 -253.99633789 293.99755859 C-257.60465604 294.65941369 -257.60465604 294.65941369 -261 296 C-279.6646393 298.7996959 -298.32330803 297.52620498 -313.9921875 286.3671875 C-315.95004424 284.95779667 -315.95004424 284.95779667 -318.07421875 284.01953125 C-321.53109128 282.18942226 -323.6075405 279.02431419 -326 276 C-326.48210937 275.41605469 -326.96421875 274.83210938 -327.4609375 274.23046875 C-330.64510071 270.15363551 -331.68362321 267.16748754 -332 262 C-332.66 262 -333.32 262 -334 262 C-335.12207291 239.71483395 -336.24372697 217.42964685 -337.36492634 195.14443684 C-337.88591978 184.78923429 -338.4070379 174.43403805 -338.9284668 164.07885742 C-339.13135838 160.04931695 -339.33423822 156.01977588 -339.53710938 151.99023438 C-339.58710264 150.99726719 -339.6370959 150.0043 -339.68860412 148.9812429 C-340.2369818 138.08831058 -340.78462767 127.19534217 -341.33035278 116.30227661 C-341.37857072 115.33982957 -341.42678865 114.37738254 -341.47646773 113.38577044 C-341.66784673 109.56536797 -341.85920305 105.74496436 -342.0504458 101.92455506 C-342.56864655 91.57319058 -343.08916026 81.22195424 -343.61682564 70.87106758 C-343.91192757 65.08138499 -344.20476067 59.29159124 -344.49560493 53.50169319 C-344.65724254 50.28635115 -344.82053771 47.07110833 -344.98641396 43.85598183 C-345.62026408 31.56216946 -346.21943683 19.31284463 -346 7 C-342.37370279 6.17621353 -338.97716545 5.84991633 -335.26175499 5.78324795 C-334.10906289 5.76035653 -332.9563708 5.7374651 -331.76874864 5.71388 C-329.87583052 5.68323073 -329.87583052 5.68323073 -327.94467163 5.65196228 C-326.5870046 5.62673769 -325.22934494 5.60111436 -323.8716923 5.57512671 C-320.14177231 5.5048883 -316.41177233 5.44032166 -312.6817348 5.37667644 C-308.65833818 5.30703657 -304.63503875 5.23215313 -300.61172485 5.15791321 C-292.72866591 5.01327417 -284.8455284 4.87345614 -276.96235506 4.73520844 C-267.77879257 4.57395195 -258.59532205 4.40772648 -249.41185315 4.24123878 C-233.01991283 3.94421802 -216.62790012 3.65140275 -200.23583984 3.36108398 C-184.33930752 3.07953512 -168.44282175 2.7955362 -152.54638672 2.50854492 C-151.56821123 2.49088567 -150.59003574 2.47322642 -149.58221857 2.45503204 C-145.65005027 2.38403792 -141.71788207 2.31303821 -137.78571405 2.24202829 C-121.71281048 1.9518374 -105.63987279 1.66354387 -89.56692934 1.37557149 C-85.90704368 1.30999579 -82.2471593 1.24434927 -78.58727598 1.17864299 C-68.96317469 1.00589583 -59.33906284 0.83377702 -49.71491806 0.66346806 C-45.73588835 0.59305115 -41.7568644 0.52234625 -37.77785492 0.45079422 C-34.12969332 0.38520799 -30.48151641 0.32055218 -26.83332546 0.25661952 C-24.90010943 0.22251613 -22.96691015 0.18746753 -21.03371179 0.15237659 C-14.02157616 0.03063801 -7.01317974 -0.02837948 0 0 Z " fill="#5D74D0" transform="translate(581,395)"/>
<path d="M0 0 C9.33233044 2.14976898 18.70062164 3.69146505 28.1875 5 C32.65459348 5.62772882 37.00623275 6.38694372 41.390625 7.43359375 C45.80235249 8.39122921 50.2581289 9.11467206 54.71020508 9.85913086 C58.21902946 10.45823812 61.66017769 11.14032687 65.10546875 12.0390625 C68.63785436 12.95081331 72.12055666 13.46522414 75.75 13.875 C81.58623431 14.58989637 87.30752476 15.61269122 93.0625 16.8125 C105.51459598 19.39740798 118.0648852 21.38080289 130.61230469 23.44042969 C135.01624121 24.16785996 139.41600567 24.91644449 143.8125 25.6875 C145.61654297 26.00267578 145.61654297 26.00267578 147.45703125 26.32421875 C150.05811876 26.8203468 152.61762196 27.36501824 155.1953125 27.9609375 C160.77579865 29.21925342 166.41079749 30.06724319 172.0625 30.9375 C184.12705915 32.8325538 196.09519205 34.99947231 208.0625 37.4375 C215.49626048 38.93839667 222.96111385 40.23108826 230.43505859 41.51489258 C237.45523461 42.72280821 244.45625891 44.00824859 251.453125 45.34375 C255.90318876 46.16710982 260.36677536 46.88400053 264.83984375 47.5703125 C267 48 267 48 268 49 C268.94264239 54.35690793 269.28920654 59.70047386 269.57582092 65.12654114 C269.62567798 66.02384797 269.67553503 66.92115481 269.7269029 67.84565276 C269.89255816 70.84071507 270.05382387 73.83599712 270.21508789 76.83129883 C270.33320394 78.98358038 270.45158322 81.1358475 270.57020569 83.2881012 C270.89118976 89.12686057 271.20828843 94.96582501 271.52454305 100.80484223 C271.85630544 106.92083519 272.19113579 113.0366603 272.52549744 119.1525116 C273.08665354 129.42585611 273.64526107 139.69933688 274.20239258 149.97290039 C274.84590844 161.83876991 275.4935705 173.70440765 276.1434384 185.56993085 C276.76904264 196.99440353 277.39157234 208.41904181 278.01275444 219.84375572 C278.27688094 224.70041157 278.54210148 229.55700583 278.80821419 234.41355324 C279.12177757 240.13845609 279.43264905 245.86349904 279.74147606 251.58865929 C279.85502403 253.68567834 279.96948823 255.78264801 280.08495331 257.87956238 C280.24288038 260.75041405 280.39743023 263.62142901 280.55116272 266.49250793 C280.62017661 267.72566599 280.62017661 267.72566599 280.69058472 268.98373634 C280.98954304 274.65990617 281.04839187 280.31650545 281 286 C236.93866798 286.02286448 192.87733659 286.04049726 148.81599981 286.05106533 C143.6199276 286.05231611 138.4238554 286.05361042 133.2277832 286.05493164 C132.1932928 286.05519395 131.1588024 286.05545626 130.09296381 286.05572652 C113.31946794 286.06008363 96.54597547 286.0679714 79.77248163 286.0771528 C62.57481829 286.0864882 45.37715675 286.09205537 28.17949098 286.09408849 C17.5586211 286.09546396 6.93776085 286.0998158 -3.68310607 286.10791647 C-10.95582059 286.11318253 -18.22853009 286.11480461 -25.50124639 286.11350138 C-29.70380487 286.11285778 -33.90634646 286.11387796 -38.10890198 286.11920547 C-41.94982447 286.12403929 -45.79071855 286.12433877 -49.63164229 286.12089889 C-51.02734456 286.12047318 -52.42304853 286.12176907 -53.81874739 286.12488318 C-55.70360817 286.12884701 -57.58847956 286.12615644 -59.47334194 286.12304783 C-61.04937117 286.12361741 -61.04937117 286.12361741 -62.65723938 286.1241985 C-65 286 -65 286 -66 285 C-66.24714297 281.88632444 -66.43071413 278.78947171 -66.57582092 275.6703949 C-66.62567798 274.67879822 -66.67553503 273.68720155 -66.7269029 272.66555649 C-66.8941596 269.31557547 -67.05458775 265.96530129 -67.21508789 262.61499023 C-67.33305844 260.22389269 -67.45144055 257.83281541 -67.57020569 255.4417572 C-67.85909924 249.60332313 -68.14357485 243.76468352 -68.42605288 237.92593645 C-68.75521049 231.12631055 -69.08938112 224.32693386 -69.42378037 217.52756406 C-70.02052054 205.3905525 -70.61273128 193.25332415 -71.20239258 181.1159668 C-71.77437015 169.34269579 -72.34941815 157.56958024 -72.92797852 145.79663086 C-72.96355974 145.07258989 -72.99914096 144.34854892 -73.0358004 143.60256731 C-73.08908121 142.51837675 -73.08908121 142.51837675 -73.1434384 141.41228336 C-73.21495875 139.95691811 -73.28647763 138.50155279 -73.35799503 137.0461874 C-73.41090214 135.96954285 -73.41090214 135.96954285 -73.46487809 134.8711479 C-74.01606812 123.65187367 -74.56435119 112.43245715 -75.11237364 101.21302782 C-75.31092293 97.14903431 -75.50991713 93.08506287 -75.70923907 89.02110719 C-76.05537418 81.96367723 -76.39952203 74.90615407 -76.74147606 67.84852028 C-76.8552931 65.50557597 -76.96976866 63.16266354 -77.08495331 60.81978607 C-77.24217301 57.6194394 -77.39697629 54.41898464 -77.55116272 51.2184906 C-77.59717198 50.29308407 -77.64318124 49.36767753 -77.69058472 48.41422838 C-78.26314879 36.38488869 -78.04079782 25.82764178 -70 16 C-50.63533466 -2.85618397 -25.81811831 -6.14076772 0 0 Z " fill="#7061C6" transform="translate(297,51)"/>
<path d="M0 0 C0.73913828 -0.00740442 1.47827656 -0.01480884 2.23981297 -0.02243763 C4.00541575 -0.02726339 5.77102446 0.02054161 7.53567505 0.07872009 C9.23475212 1.77779717 8.82372233 4.00074437 8.9596405 6.33273315 C9.0283284 7.47239532 9.0970163 8.6120575 9.16778564 9.78625488 C9.23899628 11.04800034 9.31020691 12.30974579 9.38357544 13.60972595 C9.46214462 14.94340814 9.54111837 16.27706654 9.62046814 17.61070251 C9.83548002 21.24525289 10.04457712 24.88012218 10.25250173 28.51508403 C10.47103283 32.32094146 10.69441113 36.12651465 10.91712952 39.93212891 C11.2910239 46.33375365 11.66119768 52.73558528 12.02908325 59.13755798 C12.45343556 66.52156459 12.88308291 73.90524783 13.31575018 81.28877157 C13.73232021 88.3990051 14.14556353 95.50942804 14.55715752 102.61995125 C14.73200672 105.64007383 14.90791338 108.660132 15.08467293 111.68014336 C15.29340419 115.24958967 15.4991748 118.81919533 15.70275688 122.3889389 C15.81296472 124.30987887 15.92597337 126.23065753 16.03909302 128.15142822 C16.89370868 143.26743054 16.56506221 156.26972095 9.53567505 170.07872009 C8.87567505 170.07872009 8.21567505 170.07872009 7.53567505 170.07872009 C7.45188599 170.63946228 7.36809692 171.20020447 7.2817688 171.77793884 C4.56810508 180.14625261 -5.13798731 186.86445508 -12.46432495 191.07872009 C-24.60294372 197.19931941 -37.89353526 199.92644211 -51.1791687 202.30137634 C-55.8707682 203.14138566 -60.54218257 204.07473045 -65.21432495 205.01622009 C-66.05366577 205.18508728 -66.89300659 205.35395447 -67.75778198 205.52793884 C-69.47039007 205.87261468 -71.18295497 206.21750516 -72.89547729 206.56260681 C-75.43467328 207.07276271 -77.97470891 207.5784893 -80.5151062 208.08262634 C-88.57052208 209.68257264 -96.61814799 211.31024667 -104.65182495 213.01622009 C-115.15091422 215.24409977 -125.67635647 217.33618168 -136.20309448 219.42881775 C-139.48750183 220.08333881 -142.77096583 220.74240418 -146.0541687 221.40293884 C-156.44961573 223.4927733 -166.84721812 225.54162551 -177.27682495 227.45372009 C-179.89977172 227.96802338 -182.45015189 228.56349108 -185.02682495 229.26622009 C-188.71930495 230.13898809 -191.69573182 230.23574481 -195.46432495 230.07872009 C-197.08308173 226.84120654 -196.85187401 223.25770354 -197.04014587 219.69184875 C-197.09000293 218.81373712 -197.13985998 217.93562549 -197.19122785 217.03090441 C-197.35818413 214.07098901 -197.51877111 211.11076178 -197.67941284 208.15049744 C-197.79741095 206.0351099 -197.91579258 203.91974372 -198.03453064 201.80439758 C-198.3567105 196.04405228 -198.67332974 190.28341323 -198.988868 184.52270079 C-199.31961601 178.49910867 -199.65502015 172.47577572 -199.98982239 166.45240784 C-200.55180883 156.32914984 -201.11035731 146.20570674 -201.66671753 136.08213806 C-202.3097688 124.38160288 -202.95742951 112.68133024 -203.60776335 100.98119771 C-204.23302868 89.73130905 -204.85575785 78.4812816 -205.47707939 67.23117447 C-205.74153975 62.44266077 -206.00675072 57.65418952 -206.27253914 52.86574936 C-206.585716 47.22051545 -206.89662668 41.57516106 -207.20580101 35.92970657 C-207.3195292 33.85927439 -207.43400131 31.78888291 -207.54927826 29.71853638 C-207.7067327 26.88829694 -207.86145307 24.05792062 -208.01548767 21.22749329 C-208.06149693 20.41171543 -208.10750619 19.59593756 -208.15490967 18.75543916 C-208.41798966 13.85521958 -208.50448121 8.98611091 -208.46432495 4.07872009 C-184.7647404 3.35069625 -161.06582927 2.79754577 -137.35900259 2.37153888 C-132.90948029 2.29126672 -128.45999212 2.20913811 -124.01049805 2.12731934 C-116.57016228 1.99078962 -109.12980132 1.8557095 -101.68942261 1.72154236 C-93.13946409 1.56734757 -84.58955265 1.41072022 -76.03966129 1.25284904 C-67.71721312 1.09923937 -59.39473352 0.94739944 -51.07223892 0.79632759 C-47.56950941 0.73271237 -44.06679187 0.66848946 -40.5640831 0.6037426 C-36.44165492 0.52761579 -32.31920108 0.4530573 -28.19672394 0.37963104 C-26.70092186 0.35275085 -25.20512873 0.32536563 -23.70934677 0.29738808 C-15.80674063 0.14992225 -7.90389402 0.04235307 0 0 Z " fill="#6C65C8" transform="translate(856.4643249511719,389.92127990722656)"/>
<path d="M0 0 C11.19869039 0.46838629 21.87020538 2.30976974 32.85888672 4.40869141 C38.4603642 5.46315888 44.07482506 6.44471852 49.6875 7.4375 C60.34770055 9.33307028 70.99619021 11.28689273 81.64086914 13.26757812 C88.10318374 14.46845962 94.56860759 15.64137799 101.04345703 16.77270508 C109.98352678 18.33992672 118.91471051 19.95792715 127.84179688 21.59741211 C129.28906039 21.86312998 130.73632603 22.12883628 132.18359375 22.39453125 C132.90839935 22.52768234 133.63320496 22.66083344 134.37997437 22.79801941 C138.77011859 23.60149313 143.1637929 24.38013756 147.5620575 25.13786316 C150.40522727 25.62982629 153.24604935 26.13458298 156.0866394 26.64120483 C158.04874531 26.98657754 160.01372084 27.31552467 161.97875977 27.64379883 C179.96931184 30.88075095 194.69626295 38.25675288 207 52 C207.53238281 52.59039062 208.06476563 53.18078125 208.61328125 53.7890625 C214.91646103 61.44408704 219.82510175 72.41763751 220.42396545 82.31575012 C220.49265335 83.41872437 220.56134125 84.52169861 220.6321106 85.65809631 C220.70332123 86.86896408 220.77453186 88.07983185 220.84790039 89.32739258 C220.92607498 90.60256744 221.00424957 91.87774231 221.08479309 93.19155884 C221.29930768 96.69405119 221.50863648 100.19683589 221.71682668 103.69970918 C221.93593603 107.37552983 222.15901669 111.05110989 222.38145447 114.72673035 C222.75505537 120.91131446 223.12519168 127.09609901 223.4934082 133.28100586 C223.91730662 140.40030758 224.34711827 147.51923369 224.78007513 154.63798982 C225.15262757 160.76627093 225.52185587 166.89474602 225.88840669 173.02338904 C226.10686342 176.6758399 226.32641848 180.32821509 226.54899788 183.98041725 C226.7980022 188.06975465 227.0400395 192.15947746 227.28149414 196.24926758 C227.39134644 198.03216942 227.39134644 198.03216942 227.50341797 199.85108948 C227.97346251 207.94343037 228 215.86116775 228 224 C156.72 224 85.44 224 12 224 C11.26681884 218.8677319 10.73954562 213.88228595 10.46214294 208.72453308 C10.39348269 207.51567152 10.39348269 207.51567152 10.32343537 206.28238851 C10.17162794 203.59620933 10.02416015 200.90981023 9.87670898 198.22338867 C9.76843565 196.29098141 9.6599086 194.35858836 9.55114746 192.4262085 C9.25695438 187.18400688 8.96668185 181.94159514 8.67738605 176.69912124 C8.43494803 172.3113115 8.19072577 167.92360176 7.946549 163.53588849 C7.36978637 153.17032325 6.79633517 142.80457833 6.22485352 132.4387207 C5.63725536 121.7817107 5.04377401 111.12503981 4.44740242 100.46851748 C3.93423892 91.29469567 3.42496326 82.12066339 2.91869217 72.94645864 C2.61690212 67.4785685 2.31365834 62.01076931 2.00658989 56.54317284 C1.71731376 51.38961133 1.43293906 46.23580102 1.1521225 41.08177185 C1.04903198 39.20415156 0.94429689 37.32662062 0.83767128 35.44919777 C0.1670428 23.61863502 -0.12829294 11.84962283 0 0 Z " fill="#765CC4" transform="translate(633,113)"/>
<path d="M0 0 C5.10964326 4.30397337 9.75796044 9.09753628 14.38964844 13.90454102 C22.3881618 22.08305767 30.09031277 25.62478776 41.5078125 25.9609375 C47.60664009 25.85652655 52.47195725 24.80344694 58.05859375 22.3984375 C60.1328125 21.5234375 60.1328125 21.5234375 62.1328125 21.5234375 C62.1328125 20.8634375 62.1328125 20.2034375 62.1328125 19.5234375 C63.339375 19.12125 63.339375 19.12125 64.5703125 18.7109375 C65.4159375 18.3190625 66.2615625 17.9271875 67.1328125 17.5234375 C67.4628125 16.5334375 67.7928125 15.5434375 68.1328125 14.5234375 C69.734375 12.98046875 69.734375 12.98046875 71.7578125 11.3359375 C75.4880759 8.20171259 78.55285184 4.82899396 81.58984375 1.02734375 C83.1328125 -0.4765625 83.1328125 -0.4765625 86.1328125 -0.4765625 C86.1328125 -1.1365625 86.1328125 -1.7965625 86.1328125 -2.4765625 C106.04303449 -16.49138188 129.40484529 -19.37056188 153.0703125 -15.4765625 C161.39014865 -13.53868353 168.72718693 -9.62237546 176.1328125 -5.4765625 C177.10992188 -4.9403125 178.08703125 -4.4040625 179.09375 -3.8515625 C179.76664063 -3.3978125 180.43953125 -2.9440625 181.1328125 -2.4765625 C181.1328125 -1.8165625 181.1328125 -1.1565625 181.1328125 -0.4765625 C181.968125 -0.3528125 181.968125 -0.3528125 182.8203125 -0.2265625 C188.35673382 1.5690336 191.77678212 6.30090215 195.4453125 10.5703125 C203.03702589 19.35701782 210.53791801 24.64793272 222.27734375 25.84375 C231.97462335 26.18884892 240.01760374 23.83219417 248.1328125 18.5234375 C249.15081826 17.20380041 250.15529615 15.87334104 251.1328125 14.5234375 C251.7928125 14.5234375 252.4528125 14.5234375 253.1328125 14.5234375 C253.4009375 13.8840625 253.6690625 13.2446875 253.9453125 12.5859375 C255.1328125 10.5234375 255.1328125 10.5234375 258.1328125 9.5234375 C258.4628125 8.8634375 258.7928125 8.2034375 259.1328125 7.5234375 C260.1328125 5.5234375 260.1328125 5.5234375 263.1328125 4.5234375 C263.4628125 3.5334375 263.7928125 2.5434375 264.1328125 1.5234375 C268.28265482 -2.27975928 273.01162682 -5.17725465 278.1328125 -7.4765625 C278.8340625 -7.79367187 279.5353125 -8.11078125 280.2578125 -8.4375 C281.80839296 -9.13421352 283.36318135 -9.82163167 284.921875 -10.5 C286.78351177 -11.32227773 288.61817713 -12.20523194 290.4453125 -13.1015625 C307.73639083 -19.54908323 331.35854566 -18.45090008 348.1953125 -11.0390625 C349.85432994 -10.2107937 351.50202107 -9.35910845 353.1328125 -8.4765625 C354.11314453 -7.94675781 354.11314453 -7.94675781 355.11328125 -7.40625 C356.80309257 -6.45876197 358.46876021 -5.46859367 360.1328125 -4.4765625 C361.3084375 -3.8784375 362.4840625 -3.2803125 363.6953125 -2.6640625 C367.0787457 -0.74251358 369.1745335 1.6941139 371.578125 4.71484375 C373.73561236 7.22468457 376.22169491 9.21487057 378.8125 11.26171875 C379.24820313 11.67808594 379.68390625 12.09445312 380.1328125 12.5234375 C380.1328125 13.1834375 380.1328125 13.8434375 380.1328125 14.5234375 C380.7928125 14.5234375 381.4528125 14.5234375 382.1328125 14.5234375 C382.1328125 15.1834375 382.1328125 15.8434375 382.1328125 16.5234375 C382.6896875 16.7709375 383.2465625 17.0184375 383.8203125 17.2734375 C386.1328125 18.5234375 386.1328125 18.5234375 388.3203125 20.4609375 C396.55327132 26.49844063 406.32088618 26.41817258 416.1328125 25.5234375 C419.52883894 24.66960699 422.19965347 23.41752197 425.1328125 21.5234375 C425.76960937 21.12253906 426.40640625 20.72164062 427.0625 20.30859375 C434.41911938 15.21214056 440.51719036 8.32965058 446.65234375 1.87109375 C449.04350857 -0.3920402 451.26537341 -1.88858199 454.1328125 -3.4765625 C455.23109375 -4.18425781 455.23109375 -4.18425781 456.3515625 -4.90625 C474.89092261 -16.65207747 496.33982284 -18.97336637 517.7578125 -15.5390625 C527.13009368 -13.41231571 535.64087751 -8.86637944 544.1328125 -4.4765625 C544.1328125 -3.8165625 544.1328125 -3.1565625 544.1328125 -2.4765625 C544.8753125 -2.2084375 545.6178125 -1.9403125 546.3828125 -1.6640625 C549.02343199 -0.52379499 550.98834094 0.61724056 553.1328125 2.5234375 C553.1328125 3.1834375 553.1328125 3.8434375 553.1328125 4.5234375 C553.73738281 4.76835938 554.34195313 5.01328125 554.96484375 5.265625 C559.31020527 7.78671763 561.31508305 12.91661512 562.77734375 17.578125 C563.97233977 24.11777354 561.61395082 29.62555817 558.6953125 35.3359375 C554.67748455 40.96089663 550.81365074 43.02804859 544.1328125 44.5234375 C535.94466296 45.69317315 529.73283338 43.02141117 523.0703125 38.3984375 C522.11125 37.4703125 522.11125 37.4703125 521.1328125 36.5234375 C521.1328125 35.8634375 521.1328125 35.2034375 521.1328125 34.5234375 C520.3284375 34.2759375 519.5240625 34.0284375 518.6953125 33.7734375 C515.1328125 32.5234375 515.1328125 32.5234375 513.22265625 31.5 C506.36962586 27.88774847 499.76076265 27.3109949 492.1328125 28.5234375 C483.82764718 31.29676194 475.73686163 35.99289037 470.2578125 42.8984375 C467.25213969 46.50368753 463.98349519 49.8140654 460.1328125 52.5234375 C459.4728125 52.5234375 458.8128125 52.5234375 458.1328125 52.5234375 C457.9471875 53.1009375 457.7615625 53.6784375 457.5703125 54.2734375 C455.48700937 57.53425978 452.46958231 58.78591952 449.1328125 60.5234375 C447.73950743 61.33059815 446.34628216 62.13789658 444.953125 62.9453125 C433.27874109 69.41601199 420.85409068 72.06417271 407.5703125 72.0859375 C406.59634521 72.08827393 405.62237793 72.09061035 404.61889648 72.09301758 C397.75241022 71.93561794 391.66840094 70.57045298 385.1328125 68.5234375 C384.02808594 68.20761719 382.92335938 67.89179687 381.78515625 67.56640625 C374.90572176 65.398642 369.16486585 62.44374947 363.1328125 58.5234375 C362.31683594 58.07097656 361.50085938 57.61851563 360.66015625 57.15234375 C357.70624316 55.24850796 355.55625551 53.06823654 353.1328125 50.5234375 C352.12079395 49.49512289 351.10637054 48.46917078 350.08984375 47.4453125 C349.57357422 46.92453125 349.05730469 46.40375 348.52539062 45.8671875 C348.00396484 45.34125 347.48253906 44.8153125 346.9453125 44.2734375 C346.41228516 43.73203125 345.87925781 43.190625 345.33007812 42.6328125 C342.50773713 39.71586649 342.50773713 39.71586649 339.1328125 37.5234375 C339.1328125 36.8634375 339.1328125 36.2034375 339.1328125 35.5234375 C337.80136416 34.8530141 336.46748005 34.18742903 335.1328125 33.5234375 C333.86630859 32.88535156 333.86630859 32.88535156 332.57421875 32.234375 C324.14962804 28.32499912 316.41660188 26.81598025 307.30078125 29.29296875 C302.45551972 31.11629805 298.34252823 33.54583369 294.1328125 36.5234375 C292.6478125 37.0184375 292.6478125 37.0184375 291.1328125 37.5234375 C290.44637079 38.84669862 289.78165696 40.18134097 289.1328125 41.5234375 C287.51171875 43.0859375 287.51171875 43.0859375 285.6953125 44.5234375 C283.5594086 46.26576904 282.03143705 47.66101847 280.3828125 49.8984375 C279.9703125 50.4346875 279.5578125 50.9709375 279.1328125 51.5234375 C278.1428125 51.5234375 277.1528125 51.5234375 276.1328125 51.5234375 C275.88789062 52.1215625 275.64296875 52.7196875 275.390625 53.3359375 C273.10008258 57.31948953 268.99049405 59.20505885 265.1328125 61.5234375 C264.25496094 62.06677734 264.25496094 62.06677734 263.359375 62.62109375 C246.4137426 72.09071186 223.58232886 74.52384915 205.01953125 69.4375 C204.06691406 69.13585938 203.11429688 68.83421875 202.1328125 68.5234375 C201.16988281 68.22179688 200.20695312 67.92015625 199.21484375 67.609375 C193.11853233 65.54083347 187.64999867 62.81811345 182.1328125 59.5234375 C181.2253125 59.0284375 180.3178125 58.5334375 179.3828125 58.0234375 C175.96532088 55.74510975 173.28575989 52.71121212 170.43554688 49.77490234 C168.54830108 47.83164471 166.653182 45.89626961 164.7578125 43.9609375 C164.12359375 43.30158203 163.489375 42.64222656 162.8359375 41.96289062 C158.86126595 37.92738226 155.17597835 35.1052014 150.1328125 32.5234375 C149.4315625 32.10578125 148.7303125 31.688125 148.0078125 31.2578125 C141.06078117 27.61062105 133.809801 27.65936087 126.1328125 28.5234375 C123.50776121 29.35542097 121.26604 30.30954308 118.8671875 31.6484375 C117.1328125 32.5234375 117.1328125 32.5234375 114.1328125 32.5234375 C114.1328125 33.1834375 114.1328125 33.8434375 114.1328125 34.5234375 C112.453125 36.25 112.453125 36.25 110.2578125 38.1484375 C109.53851562 38.78007813 108.81921875 39.41171875 108.078125 40.0625 C106.1328125 41.5234375 106.1328125 41.5234375 104.1328125 41.5234375 C103.9059375 42.08546875 103.6790625 42.6475 103.4453125 43.2265625 C101.76351615 46.16970611 99.6617214 48.02388482 97.1328125 50.2734375 C96.2459375 51.07265625 95.3590625 51.871875 94.4453125 52.6953125 C92.1328125 54.5234375 92.1328125 54.5234375 90.1328125 54.5234375 C90.1328125 55.1834375 90.1328125 55.8434375 90.1328125 56.5234375 C87.9375 57.96875 87.9375 57.96875 85.1328125 59.5234375 C84.35164063 59.99523438 83.57046875 60.46703125 82.765625 60.953125 C65.34832542 70.99113254 43.75442131 75.11770529 23.8828125 70.76953125 C20.86396142 69.84428242 18.02378479 68.78823787 15.1328125 67.5234375 C14.2046875 67.16507813 13.2765625 66.80671875 12.3203125 66.4375 C9.90620424 65.50413837 7.51976892 64.52360586 5.1328125 63.5234375 C3.46711564 62.8543514 1.80069146 62.1870654 0.1328125 61.5234375 C0.1328125 60.8634375 0.1328125 60.2034375 0.1328125 59.5234375 C-0.5890625 59.2965625 -1.3109375 59.0696875 -2.0546875 58.8359375 C-5.40739628 57.27134007 -7.29841519 55.15807577 -9.8671875 52.5234375 C-10.51042969 52.21792969 -11.15367187 51.91242188 -11.81640625 51.59765625 C-14.22531874 50.33584495 -15.41162409 48.94305346 -17.1171875 46.8359375 C-25.16369743 37.33898372 -34.82908661 30.0760381 -47.41796875 28.12890625 C-60.04152475 27.58530814 -69.69910538 34.35032687 -78.6953125 42.42578125 C-80.6657954 44.3289275 -82.39508017 46.27243387 -84.1171875 48.3984375 C-86.43739429 51.25507093 -88.35101935 52.31789413 -91.8671875 53.5234375 C-92.1971875 54.5134375 -92.5271875 55.5034375 -92.8671875 56.5234375 C-93.8571875 56.5234375 -94.8471875 56.5234375 -95.8671875 56.5234375 C-95.8671875 57.1834375 -95.8671875 57.8434375 -95.8671875 58.5234375 C-97.15632237 59.19498683 -98.44858954 59.86052609 -99.7421875 60.5234375 C-100.46148437 60.8946875 -101.18078125 61.2659375 -101.921875 61.6484375 C-103.8671875 62.5234375 -103.8671875 62.5234375 -105.8671875 62.5234375 C-105.8671875 63.1834375 -105.8671875 63.8434375 -105.8671875 64.5234375 C-108.03203907 65.32005423 -110.19916875 66.11048111 -112.3671875 66.8984375 C-113.57375 67.33929687 -114.7803125 67.78015625 -116.0234375 68.234375 C-136.38517036 75.20540813 -157.23739997 72.45125717 -176.8671875 64.5234375 C-176.8671875 63.8634375 -176.8671875 63.2034375 -176.8671875 62.5234375 C-177.6921875 62.2965625 -178.5171875 62.0696875 -179.3671875 61.8359375 C-184.91498869 59.75551205 -189.78443685 56.8443486 -193.8671875 52.5234375 C-204.92322108 41.1685922 -216.76887795 34.63338698 -232.8671875 34.0234375 C-245.06692291 34.51735391 -256.7646241 38.10792213 -265.3046875 47.0859375 C-270.4212732 51.95293365 -276.2694971 54.796569 -283.3671875 55.1484375 C-290.42071195 54.79826253 -296.32613756 52.06448744 -301.3046875 47.0859375 C-301.8203125 46.2403125 -302.3359375 45.3946875 -302.8671875 44.5234375 C-303.4446875 43.6984375 -304.0221875 42.8734375 -304.6171875 42.0234375 C-306.84878486 35.77496489 -307.35030962 28.93125856 -304.66015625 22.75 C-301.03552381 17.07905608 -301.03552381 17.07905608 -297.7890625 15.53515625 C-295.34522121 14.24866256 -295.01066271 12.98378375 -293.8671875 10.5234375 C-288.59849625 5.24058311 -281.58201699 2.22048529 -274.94140625 -0.9609375 C-271.80351786 -2.42541187 -271.80351786 -2.42541187 -268.8671875 -4.4765625 C-258.59716288 -8.13547249 -248.82286117 -10.29875506 -237.8671875 -10.4765625 C-237.00996094 -10.50363281 -236.15273437 -10.53070312 -235.26953125 -10.55859375 C-232.79543508 -10.60284588 -230.34039371 -10.55466375 -227.8671875 -10.4765625 C-226.83464844 -10.45980469 -225.80210937 -10.44304688 -224.73828125 -10.42578125 C-217.78859827 -10.14905895 -211.45233627 -9.04789771 -204.8046875 -7.1015625 C-204.09046631 -6.89249268 -203.37624512 -6.68342285 -202.64038086 -6.46801758 C-198.67549616 -5.23542799 -195.3662962 -3.68342026 -191.8671875 -1.4765625 C-190.20196931 -0.80628599 -188.53527942 -0.13965494 -186.8671875 0.5234375 C-185.09693238 1.48712668 -183.34643273 2.48796131 -181.6171875 3.5234375 C-180.74578125 4.0390625 -179.874375 4.5546875 -178.9765625 5.0859375 C-176.8671875 6.5234375 -176.8671875 6.5234375 -175.8671875 8.5234375 C-174.8771875 8.8534375 -173.8871875 9.1834375 -172.8671875 9.5234375 C-171.17721427 11.16646703 -169.51502356 12.83815062 -167.8671875 14.5234375 C-160.31914938 21.88277467 -152.08245307 25.65892244 -141.4921875 25.7109375 C-140.18507813 25.72511719 -138.87796875 25.73929688 -137.53125 25.75390625 C-134.09250338 25.53760982 -131.95929271 24.92394697 -128.8671875 23.5234375 C-126.0546875 23.3984375 -126.0546875 23.3984375 -123.8671875 23.5234375 C-123.8671875 22.8634375 -123.8671875 22.2034375 -123.8671875 21.5234375 C-122.10299381 20.25321804 -120.33799706 18.98410693 -118.5703125 17.71875 C-114.25766871 14.21628496 -110.46423906 10.19904254 -106.61669922 6.19824219 C-106.03162598 5.59657227 -105.44655273 4.99490234 -104.84375 4.375 C-104.31861816 3.82666504 -103.79348633 3.27833008 -103.25244141 2.71337891 C-101.8671875 1.5234375 -101.8671875 1.5234375 -99.8671875 1.5234375 C-99.8671875 0.8634375 -99.8671875 0.2034375 -99.8671875 -0.4765625 C-70.33922496 -22.05102545 -29.06854978 -22.98726322 0 0 Z " fill="#4F84D7" transform="translate(402.8671875,975.4765625)"/>
<path d="M0 0 C0 0.66 0 1.32 0 2 C0.86496094 2.21914063 1.72992188 2.43828125 2.62109375 2.6640625 C6.54876808 4.21696958 9.09994976 6.46978944 12.0625 9.375 C14.8680297 12.06198619 17.64311109 14.71718238 20.69140625 17.1328125 C22.77038606 18.81428856 24.25688408 20.39357691 25.875 22.5 C30.5289397 28.05854178 35.99117401 30.28624317 43 32 C54.30678618 32.93214404 63.74940033 32.20445286 72.75390625 25.01171875 C78.45367104 19.90671203 83.81085145 14.39607804 89.046875 8.8203125 C91.21530718 6.79933371 93.42059557 5.45240311 96 4 C96.75539063 3.52820313 97.51078125 3.05640625 98.2890625 2.5703125 C117.59255362 -9.37331913 138.68471193 -13.3873125 161.11010742 -8.81713867 C171.41513226 -6.38696339 180.4200757 -2.40718089 189.078125 3.671875 C191.06140365 5.10011762 191.06140365 5.10011762 193.625 6.375 C196.70014063 8.47904359 198.78076797 11.10717241 201.171875 13.9453125 C203.38797756 16.43606025 205.80380679 18.51294843 208.375 20.625 C210 22 210 22 212.625 24.6875 C218.69123423 30.59409649 225.66329292 32.05485361 233.9375 32.25 C244.08692119 31.96719879 252.41411705 29.89696118 259.61328125 22.296875 C260.57702805 21.14349608 261.52646713 19.97800509 262.4609375 18.80078125 C264.7740318 16.09434351 267.45275285 13.87025992 270.16796875 11.578125 C271.9861411 10.06116969 271.9861411 10.06116969 273.4609375 8.484375 C275.30758 6.70334924 277.28495793 5.39388896 279.4375 4 C281.66863574 2.55032804 283.84031879 1.12722568 285.921875 -0.53125 C300.41444457 -10.77411872 322.75742273 -12.12658095 339.82421875 -9.2734375 C351.38708227 -7.03812596 361.37072362 -3.17288925 371.02734375 3.66796875 C372.94954905 5.04359981 372.94954905 5.04359981 375.0390625 5.9375 C377.41785925 7.22640979 378.71612026 8.7333277 380.4375 10.8125 C381.04851563 11.53050781 381.65953125 12.24851562 382.2890625 12.98828125 C382.85367188 13.65214844 383.41828125 14.31601562 384 15 C392.04574995 23.69810805 401.12972894 31.36342761 413.3203125 32.23828125 C421.42312988 32.39634442 427.66352187 31.65490002 435 28 C435.87398437 27.70867188 436.74796875 27.41734375 437.6484375 27.1171875 C440.48758083 25.76835861 440.77303378 24.80449421 442 22 C443.62109375 20.4375 443.62109375 20.4375 445.4375 19 C448.06197006 16.8546863 449.99558324 14.74288609 452 12 C452.66 12 453.32 12 454 12 C454 11.34 454 10.68 454 10 C455.94140625 8.44921875 455.94140625 8.44921875 458.5625 6.6875 C461.6067638 4.62952643 464.5922625 2.5578033 467.5 0.3125 C475.00087111 -5.02028715 484.15211296 -7.0351934 493 -9 C493.73863281 -9.18691406 494.47726562 -9.37382813 495.23828125 -9.56640625 C514.3161317 -12.56165575 532.08910088 -8.75528819 549 0 C549 0.66 549 1.32 549 2 C550.31291016 2.36931641 550.31291016 2.36931641 551.65234375 2.74609375 C559.63596389 5.73645789 566.54378311 12.11745122 570.1953125 19.8203125 C572.87619493 27.08212024 572.00001739 32.89020269 569 40 C566.9375 43.125 566.9375 43.125 565 45 C564.34 45 563.68 45 563 45 C562.67 45.99 562.34 46.98 562 48 C556.95221064 51.36519291 550.96803733 51.61626472 545 51 C540.15525845 49.85959817 536.38724804 48.74286464 533 45 C526.80915356 38.44049946 519.9928455 35.79654018 511.04516602 35.35180664 C501.8780434 35.2066688 494.65619647 36.53698481 487 42 C486.1646875 42.84111328 486.1646875 42.84111328 485.3125 43.69921875 C484 45 484 45 482 45 C481.731875 45.639375 481.46375 46.27875 481.1875 46.9375 C480 49 480 49 477 50 C475.79117904 52.00016466 475.79117904 52.00016466 475 54 C474.34 54 473.68 54 473 54 C472.60554687 54.89332031 472.60554687 54.89332031 472.203125 55.8046875 C469.64349844 60.47517493 465.42777836 63.42888865 460.5625 65.375 C459.716875 65.58125 458.87125 65.7875 458 66 C458 66.66 458 67.32 458 68 C438.05017916 78.32644911 415.90400252 81.93775422 394.125 75.3125 C376.79450378 69.60043062 364.80471774 59.80471774 352 47 C349.77286257 44.83666077 347.47482027 42.87575663 345 41 C344.3503125 40.50757813 343.700625 40.01515625 343.03125 39.5078125 C337.17014019 35.85493772 331.54992188 35.50970196 324.8125 35.4375 C323.95696533 35.42283691 323.10143066 35.40817383 322.2199707 35.39306641 C316.28249993 35.48882276 312.97703418 36.81899849 308 40 C307.01 40 306.02 40 305 40 C305 40.66 305 41.32 305 42 C303.63671875 43.33984375 303.63671875 43.33984375 301.6875 44.9375 C297.0614506 48.8556486 292.84594877 53.11854446 288.61328125 57.44921875 C284.57417138 61.39172808 280.54347566 64.41304486 275.5625 67.0625 C274.65628906 67.54847656 273.75007812 68.03445313 272.81640625 68.53515625 C271.88699219 69.01855469 270.95757813 69.50195312 270 70 C269.03964844 70.51175781 268.07929687 71.02351562 267.08984375 71.55078125 C263.77087288 73.1074667 260.52992198 74.14188576 257 75.125 C255.824375 75.45757813 254.64875 75.79015625 253.4375 76.1328125 C239.71534789 79.59453724 225.90795277 79.02993422 212.3125 75.3125 C210.96961914 74.94692993 210.96961914 74.94692993 209.59960938 74.57397461 C195.56867742 70.41952795 184.54281995 61.78890175 174.5 51.4375 C165.0191133 41.72284128 156.56748724 35.29559405 142.6484375 34.90625 C131.46770553 35.19855672 123.02340093 39.34978051 115 47 C113.44534825 48.73495929 111.93742214 50.50009336 110.4453125 52.2890625 C105.08050847 58.63983051 105.08050847 58.63983051 101 60 C100.4225 60.5775 99.845 61.155 99.25 61.75 C94.14154435 66.85845565 88.82401775 69.78059983 82 72 C81.30003906 72.24492188 80.60007812 72.48984375 79.87890625 72.7421875 C78.38147883 73.26001445 76.87703626 73.75787483 75.3671875 74.23828125 C73.81717912 74.73704632 72.27912518 75.2750376 70.7578125 75.85546875 C53.70459457 81.6579215 32.80743301 78.60416886 16.58984375 71.5078125 C13.96552213 70.11443128 11.48610965 68.62454406 9 67 C8.23171875 66.54238281 7.4634375 66.08476563 6.671875 65.61328125 C3.38195556 63.64287986 0.67964378 61.74997563 -2 59 C-3.097435 58.07528479 -4.20192118 57.1588875 -5.3125 56.25 C-8.45293704 53.59321676 -11.03833551 50.71121495 -13.64453125 47.5390625 C-15.23759104 45.73022805 -17.06033965 44.4174441 -19 43 C-19 42.34 -19 41.68 -19 41 C-19.86625 40.731875 -20.7325 40.46375 -21.625 40.1875 C-25 39 -25 39 -27.60546875 37.4609375 C-32.05865485 35.54437639 -35.8851962 35.4253491 -40.6875 35.4375 C-42.01672485 35.43786255 -42.01672485 35.43786255 -43.37280273 35.43823242 C-51.44019944 35.64876333 -57.91223408 37.79626909 -63.65234375 43.69921875 C-65 45 -65 45 -67 45 C-67.268125 45.639375 -67.53625 46.27875 -67.8125 46.9375 C-69 49 -69 49 -72 50 C-72.268125 50.5775 -72.53625 51.155 -72.8125 51.75 C-74.5763914 55.09211003 -76.98041507 56.7353113 -80 59 C-80.66 59 -81.32 59 -82 59 C-82 59.66 -82 60.32 -82 61 C-89.57308613 67.1812757 -97.75887437 71.00489469 -107 74 C-108.12792969 74.39316406 -109.25585938 74.78632812 -110.41796875 75.19140625 C-124.79859404 79.69221264 -140.6861917 79.83350338 -155 75 C-156.01320312 74.70996094 -157.02640625 74.41992188 -158.0703125 74.12109375 C-164.93111214 72.06629285 -170.24084474 69.20358961 -176 65 C-178.47314916 63.48238574 -180.93125826 62.03608941 -183.5 60.6875 C-186 59 -186 59 -188.1875 56.25 C-195.45194223 47.24209163 -206.72658269 42.32155765 -218.01123047 40.71337891 C-232.39151789 39.33072594 -244.87535168 43.94876284 -256 53 C-257.80702813 54.55191828 -259.59499655 56.10841579 -261.33203125 57.73828125 C-266.90988056 61.95759115 -273.33287001 61.56741532 -280 61 C-286.00978127 59.58593382 -290.9041405 55.70610976 -294.63671875 50.88671875 C-296.49960743 46.942092 -296.57535462 43.50443583 -296.5625 39.1875 C-296.56080811 38.38159424 -296.55911621 37.57568848 -296.55737305 36.74536133 C-296.38927453 31.21497627 -295.61853473 27.56967739 -291.65625 23.4765625 C-290.83640625 22.74566406 -290.83640625 22.74566406 -290 22 C-289.113125 21.030625 -288.22625 20.06125 -287.3125 19.0625 C-285 17 -285 17 -282 16 C-281.443125 15.4225 -280.88625 14.845 -280.3125 14.25 C-272.87928809 7.01768571 -262.73624631 3.04466809 -253 0 C-252.10023438 -0.33515625 -251.20046875 -0.6703125 -250.2734375 -1.015625 C-246.27425918 -2.21824187 -242.39409585 -2.7033018 -238.25 -3.125 C-237.44433594 -3.2084668 -236.63867188 -3.29193359 -235.80859375 -3.37792969 C-230.167582 -3.93610734 -224.66720469 -4.36694131 -219 -4 C-217.70191406 -3.93167969 -216.40382813 -3.86335937 -215.06640625 -3.79296875 C-203.17456093 -2.94552509 -192.96058816 0.45721711 -182 5 C-180.33362855 5.66740423 -178.66712525 6.33448094 -177 7 C-177 7.66 -177 8.32 -177 9 C-176.278125 9.268125 -175.55625 9.53625 -174.8125 9.8125 C-172.00233617 10.99901362 -169.51583443 12.27485639 -167 14 C-167 14.66 -167 15.32 -167 16 C-165.68 16.33 -164.36 16.66 -163 17 C-163 17.66 -163 18.32 -163 19 C-162.42894531 19.25910156 -161.85789063 19.51820313 -161.26953125 19.78515625 C-158.8037963 21.1050247 -156.84232358 22.65776116 -154.6875 24.4375 C-145.44773742 31.7592888 -135.50223716 33.1468089 -124 32 C-120.41547523 31.04743737 -117.29719882 29.66993064 -114 28 C-113.10667969 27.66355469 -112.21335937 27.32710937 -111.29296875 26.98046875 C-108.406663 25.74629031 -108.27626028 24.79181936 -107 22 C-104.5 19.25 -104.5 19.25 -102 17 C-101.34 17 -100.68 17 -100 17 C-99.731875 16.360625 -99.46375 15.72125 -99.1875 15.0625 C-98 13 -98 13 -95 12 C-94.67 11.01 -94.34 10.02 -94 9 C-89.57175704 4.94977778 -84.32496501 1.7274211 -79 -1 C-78.07574219 -1.48597656 -77.15148437 -1.97195313 -76.19921875 -2.47265625 C-51.64744425 -14.67359913 -23.84965347 -12.34769293 0 0 Z " fill="#5082D6" transform="translate(393,882)"/>
<path d="M0 0 C0.66 0.33 1.32 0.66 2 1 C0.25 2.5625 0.25 2.5625 -2 4 C-4.25 3.6875 -4.25 3.6875 -6 3 C-4.03533587 1.93224776 -2.03144641 0.93446535 0 0 Z " fill="#6B67C9" transform="translate(861,588)"/>
<path d="M0 0 C0.66 0.33 1.32 0.66 2 1 C1.01 1 0.02 1 -1 1 C-0.67 0.67 -0.34 0.34 0 0 Z " fill="#6C67C9" transform="translate(864,586)"/>
<path d="M0 0 C3 1 3 1 3 1 Z " fill="#6A69CA" transform="translate(838,595)"/>
<path d="" fill="#6A69CA" transform="translate(0,0)"/>
<path d="" fill="#6A69CA" transform="translate(0,0)"/>
<path d="" fill="#6B68C9" transform="translate(0,0)"/>
</svg>
