<svg
   aria-hidden="true"
   role="img"
   width="1em"
   height="1em"
   viewBox="0 0 48 48"
   version="1.1"
   id="svg1"
   xmlns="http://www.w3.org/2000/svg"
   xmlns:svg="http://www.w3.org/2000/svg">

  <g>
  <path
      fill="currentColor"
      d="m 28.561022,16.71368 c -0.327481,0.313623 0.0318,0.07046 0.637031,10.755232 0.0063,0.108045 0.09452,0.01316 7.519378,-1.53849 0.771402,-0.143288 1.246349,-0.379948 1.731076,-0.86247 0.38714,-0.385365 0.594644,-0.756294 0.719709,-1.28663 0.214428,-0.909369 0.09155,-3.846891 -0.185995,-6.969279 -0.0071,-0.07987 -9.913784,-0.584311 -10.421199,-0.09837 z"/>
    
   <path
      fill="currentColor"
      d="m 27.794558,3.190058 c -0.0092,0.00987 -0.0054,0.015251 0.59905,10.667666 0.0035,0.0067 0.03497,0.01195 5.15669,0.01195 h 5.150646 L 38.681272,13.68984 C 38.562341,12.601209 38.439286,7.4418352 38.137555,6.5654592 37.909626,5.9036336 37.218257,5.0677313 36.477022,4.8131867 35.143155,4.3549775 32.563708,4.1307882 28.137661,3.2470271 27.953946,3.2103414 27.799578,3.1847818 27.794543,3.1901049"/>
    
   <path
      fill="currentColor"
      d="M 10.499331,0.17604356 C 9.7329148,0.18592354 9.0985201,0.39299164 8.6027604,0.85201592 8.0535358,1.3604821 7.9618434,1.681684 8.0243301,2.8782071 8.0638422,3.635655 8.2177318,6.7544504 8.4584189,11.675776 l 0.1073698,2.193936 H 25.090812 v -0.142668 c 0,-0.276076 -0.273728,-4.9950322 -0.461277,-8.5851284 C 24.532089,3.2767093 24.556205,2.581603 24.495107,2.5694704 19.686006,1.6177601 15.783531,0.8354238 11.309482,0.22989718 11.024916,0.19138895 10.754785,0.17273463 10.499331,0.17604356 M 25.262826,16.747056 c -4.227993,0.007 -10.435467,0.225868 -16.5186931,0.315831 -0.025803,0.02283 0.5144589,11.019318 0.5713336,11.629689 0.037167,0.398172 0.077593,0.570423 0.1864976,0.795286 0.3507918,0.724119 1.1376359,1.232633 2.0895869,1.350266 0.492259,0.06082 0.761238,0.02734 2.349793,-0.292045 23.434653,-4.712245 -5.369512,1.079511 11.916794,-2.405179 0,-0.339952 -0.08824,-2.126082 -0.333623,-6.502445 -0.09053,-1.630325 -0.174507,-3.260936 -0.261689,-4.891403 m 18.025149,10.310307 c -0.121758,0 -0.451639,0.05304 -0.73318,0.117827 -9.133542,2.101623 -34.9401933,7.287707 -35.6588933,7.902058 -0.2680688,0.229132 -0.3702121,0.449723 -0.3751976,0.809911 -0.00315,0.222751 0.048434,0.402726 0.2950165,1.031033 l 0.5154217,1.312667 c 0.3948104,1.005135 0.3805227,0.981255 0.659042,1.096681 1.1330323,0.469625 1.6053876,1.513026 2.2019007,1.197722 0.05759,-0.03047 0.324653,-0.264902 0.593537,-0.521028 2.774813,-2.643468 5.864837,-1.257858 6.992114,-0.09375 0.84228,0.86976 1.028536,0.880263 1.80181,0.10124 1.85384,-1.867651 4.853179,-2.185206 7.059635,-0.05386 0.243033,0.234739 0.531149,0.474946 0.640389,0.533882 0.311037,0.167845 0.49988,0.08694 1.0669,-0.457154 1.552732,-1.489957 4.460333,-2.590331 7.129938,-0.01935 0.79931,0.769773 0.899584,0.7668 1.738362,-0.05117 0.430925,-0.420227 0.794712,-0.677601 1.440952,-1.02 0.361101,-0.191244 0.231334,0.02858 1.440181,-2.439563 1.247021,-2.545831 2.49596,-5.090702 3.744033,-7.636004 0.175611,-0.356641 0.310558,-0.698272 0.324465,-0.82147 0.061,-0.541505 -0.335877,-0.989643 -0.876426,-0.989643"/>
   <path
      fill="currentColor"
      d="m 23.229203,39.606828 c -0.988638,-0.03319 -2.037607,0.366137 -3.038905,1.355399 -1.196474,1.182138 -2.070835,0.874601 -3.015886,-0.0339 -2.71041,-2.605484 -5.067873,-0.686858 -5.838603,0.100954 -1.189091,1.21537 -2.2441475,0.545342 -2.6695536,0.16928 -0.9919957,-0.876951 -1.9266373,-1.258049 -3.0930935,-1.26107 -1.0097846,-0.0028 -1.9129207,0.282456 -2.6743477,0.84415 -0.7829132,0.577569 -0.9726239,0.993578 -0.7101188,1.557336 0.165397,0.355203 0.5212714,0.591474 0.890906,0.591474 0.3060979,0 0.454759,-0.06868 0.8610329,-0.39788 1.3603823,-1.102195 2.6750185,-0.492545 3.3336333,0.111446 1.4878468,1.364701 3.6639934,1.580163 5.4201994,-0.13993 0.914738,-0.942316 1.908988,-1.219446 2.928317,-0.269651 0.922797,0.91119 1.384076,1.195468 2.287449,1.409251 0.318663,0.07544 1.244334,0.06748 1.617809,-0.01391 0.803915,-0.175033 1.256897,-0.448282 2.146655,-1.294972 1.24366,-1.183529 2.101144,-0.75831 3.008498,0.122529 0.50113,0.486454 0.583227,0.553352 0.930612,0.758167 0.565726,0.333574 1.140849,0.482089 1.865638,0.482089 1.210766,-0.02916 2.102103,-0.442621 2.916091,-1.299386 1.162283,-1.11433 1.942844,-0.980197 3.015405,0.05189 2.775487,2.670612 5.216583,0.507605 5.760345,-0.04748 0.702297,-0.778789 1.707097,-1.003648 2.595561,-0.347193 0.485879,0.396728 0.709684,0.463293 1.131926,0.336787 0.27464,-0.08224 0.583373,-0.392751 0.654299,-0.658036 0.138737,-0.518632 -0.03822,-0.898147 -0.623798,-1.337704 -1.244097,-0.93392 -2.897246,-1.017459 -4.231737,-0.21388 -0.234401,0.14114 -0.576032,0.418744 -0.883038,0.717503 -1.011994,0.984993 -1.846075,1.232202 -3.068062,0.03182 -1.623943,-1.595092 -3.191253,-1.389367 -3.948991,-1.144653 -0.729396,0.235459 -1.162089,0.514749 -1.834468,1.183959 -1.284712,1.278574 -2.196189,0.714145 -3.056932,-0.124782 -0.759941,-0.740698 -1.688254,-1.206391 -2.676843,-1.239623"/>
   <path
      fill="currentColor"
      d="m 23.229203,43.75814 c -0.988638,-0.03319 -2.037607,0.366138 -3.038905,1.355399 -1.196474,1.182138 -2.070835,0.874601 -3.015886,-0.0339 -2.71041,-2.605486 -5.067873,-0.686859 -5.838603,0.100955 -1.189091,1.215415 -2.2441475,0.545342 -2.6695536,0.169278 -0.9919957,-0.876951 -1.9266373,-1.258047 -3.0930935,-1.261068 -1.0097846,-0.0029 -1.9129207,0.282454 -2.6743477,0.844148 -0.7829132,0.577571 -0.9726239,0.99358 -0.7101188,1.557337 0.1653471,0.355204 0.5212714,0.591478 0.890906,0.591478 0.3060979,0 0.454759,-0.06868 0.8610329,-0.397884 1.3603823,-1.102244 2.6750185,-0.492543 3.3335844,0.111446 1.4878957,1.364702 3.6640423,1.580208 5.4202483,-0.139931 0.914738,-0.942313 1.908988,-1.219446 2.928317,-0.269652 0.922748,0.91124 1.384076,1.195471 2.287449,1.409251 0.318663,0.07544 1.244334,0.06748 1.617809,-0.01391 0.803915,-0.175035 1.256897,-0.448284 2.146655,-1.294977 1.24366,-1.183523 2.101144,-0.75831 3.008498,0.122529 0.50113,0.486454 0.583227,0.553352 0.930612,0.758169 0.565726,0.333573 1.140849,0.48209 1.865638,0.48209 1.210766,-0.02916 2.102103,-0.442624 2.916091,-1.299387 1.162283,-1.114327 1.942844,-0.980198 3.015405,0.05189 2.775487,2.670607 5.216583,0.507601 5.760345,-0.04748 0.702297,-0.778785 1.707097,-1.003648 2.595561,-0.347193 0.485879,0.396732 0.709684,0.46329 1.131926,0.336787 0.27464,-0.08225 0.583373,-0.392752 0.654299,-0.658037 0.138737,-0.518631 -0.03822,-0.898147 -0.623798,-1.337705 -1.244097,-0.93392 -2.897246,-1.017458 -4.231737,-0.213874 -0.234401,0.141125 -0.576032,0.418739 -0.883038,0.717498 -1.011994,0.985033 -1.846075,1.232243 -3.068062,0.03185 -1.623943,-1.595122 -3.191253,-1.389396 -3.948991,-1.144684 -0.729396,0.23546 -1.162089,0.514751 -1.834468,1.183959 -1.284712,1.278575 -2.196189,0.714145 -3.056932,-0.124782 -0.759941,-0.740711 -1.688254,-1.2064 -2.676843,-1.239635">
  </g>
</svg>
